<?xml version="1.0" encoding="UTF-8"?>
<svg version="1.1" xmlns="http://www.w3.org/2000/svg" width="1920" height="1080">
<path d="M0 0 C0.9524913 -0.00570007 1.9049826 -0.01140015 2.88633728 -0.01727295 C4.89076643 -0.02667777 6.89521073 -0.03323885 8.8996582 -0.03710938 C11.95876849 -0.04685564 15.01721772 -0.07793814 18.07617188 -0.109375 C20.02994396 -0.11590229 21.9837208 -0.12115384 23.9375 -0.125 C24.8470192 -0.1373468 25.75653839 -0.1496936 26.69361877 -0.16241455 C31.87635263 -0.14428364 35.37346473 0.38449433 39.90234375 3.203125 C39.90234375 3.863125 39.90234375 4.523125 39.90234375 5.203125 C41.55234375 5.533125 43.20234375 5.863125 44.90234375 6.203125 C44.90234375 6.863125 44.90234375 7.523125 44.90234375 8.203125 C45.89234375 8.533125 46.88234375 8.863125 47.90234375 9.203125 C47.90234375 9.863125 47.90234375 10.523125 47.90234375 11.203125 C48.56234375 11.203125 49.22234375 11.203125 49.90234375 11.203125 C50.23234375 12.193125 50.56234375 13.183125 50.90234375 14.203125 C51.41796875 14.698125 51.93359375 15.193125 52.46484375 15.703125 C53.90234375 17.203125 53.90234375 17.203125 53.90234375 20.203125 C54.56234375 20.203125 55.22234375 20.203125 55.90234375 20.203125 C55.90234375 20.863125 55.90234375 21.523125 55.90234375 22.203125 C56.56234375 22.203125 57.22234375 22.203125 57.90234375 22.203125 C58.23234375 23.193125 58.56234375 24.183125 58.90234375 25.203125 C59.56234375 25.533125 60.22234375 25.863125 60.90234375 26.203125 C61.52734375 28.765625 61.52734375 28.765625 61.90234375 31.203125 C62.56234375 31.203125 63.22234375 31.203125 63.90234375 31.203125 C64.23234375 32.853125 64.56234375 34.503125 64.90234375 36.203125 C65.89234375 36.533125 66.88234375 36.863125 67.90234375 37.203125 C67.90234375 38.193125 67.90234375 39.183125 67.90234375 40.203125 C68.56234375 40.203125 69.22234375 40.203125 69.90234375 40.203125 C69.98484375 40.986875 70.06734375 41.770625 70.15234375 42.578125 C70.61083776 45.3477868 70.61083776 45.3477868 72.90234375 46.328125 C73.89234375 46.76125 73.89234375 46.76125 74.90234375 47.203125 C75.23234375 48.193125 75.56234375 49.183125 75.90234375 50.203125 C76.41796875 50.698125 76.93359375 51.193125 77.46484375 51.703125 C78.90234375 53.203125 78.90234375 53.203125 78.90234375 56.203125 C79.89234375 56.533125 80.88234375 56.863125 81.90234375 57.203125 C81.90234375 58.193125 81.90234375 59.183125 81.90234375 60.203125 C82.56234375 60.203125 83.22234375 60.203125 83.90234375 60.203125 C86.90234375 64.58774038 86.90234375 64.58774038 86.90234375 67.203125 C87.56234375 67.203125 88.22234375 67.203125 88.90234375 67.203125 C89.23234375 68.523125 89.56234375 69.843125 89.90234375 71.203125 C90.35609375 70.708125 90.80984375 70.213125 91.27734375 69.703125 C92.90234375 68.203125 92.90234375 68.203125 94.90234375 68.203125 C94.96421875 67.64625 95.02609375 67.089375 95.08984375 66.515625 C96.25042065 63.21244458 98.30447821 61.48417767 100.90234375 59.203125 C101.56234375 59.203125 102.22234375 59.203125 102.90234375 59.203125 C103.23234375 58.213125 103.56234375 57.223125 103.90234375 56.203125 C104.56234375 56.203125 105.22234375 56.203125 105.90234375 56.203125 C106.23234375 55.213125 106.56234375 54.223125 106.90234375 53.203125 C107.56234375 53.203125 108.22234375 53.203125 108.90234375 53.203125 C109.24265625 52.15125 109.24265625 52.15125 109.58984375 51.078125 C111.24075663 47.46183965 113.19322725 45.11542524 115.90234375 42.203125 C116.56234375 42.203125 117.22234375 42.203125 117.90234375 42.203125 C117.90234375 41.543125 117.90234375 40.883125 117.90234375 40.203125 C119.55237203 38.84925564 121.21978245 37.51634358 122.90234375 36.203125 C123.23234375 35.543125 123.56234375 34.883125 123.90234375 34.203125 C124.56234375 34.203125 125.22234375 34.203125 125.90234375 34.203125 C126.23234375 33.213125 126.56234375 32.223125 126.90234375 31.203125 C127.56234375 31.203125 128.22234375 31.203125 128.90234375 31.203125 C129.21171875 30.584375 129.52109375 29.965625 129.83984375 29.328125 C130.52734375 27.953125 131.21484375 26.578125 131.90234375 25.203125 C132.56234375 25.203125 133.22234375 25.203125 133.90234375 25.203125 C134.23234375 24.213125 134.56234375 23.223125 134.90234375 22.203125 C135.56234375 22.203125 136.22234375 22.203125 136.90234375 22.203125 C137.23234375 21.213125 137.56234375 20.223125 137.90234375 19.203125 C138.56234375 19.203125 139.22234375 19.203125 139.90234375 19.203125 C139.96421875 18.625625 140.02609375 18.048125 140.08984375 17.453125 C141.22966925 14.29668514 143.23829004 13.16945036 145.90234375 11.203125 C146.45921875 10.625625 147.01609375 10.048125 147.58984375 9.453125 C148.90234375 8.203125 148.90234375 8.203125 150.90234375 8.203125 C151.23234375 7.213125 151.56234375 6.223125 151.90234375 5.203125 C152.89234375 5.203125 153.88234375 5.203125 154.90234375 5.203125 C154.90234375 4.543125 154.90234375 3.883125 154.90234375 3.203125 C155.89234375 3.203125 156.88234375 3.203125 157.90234375 3.203125 C157.90234375 2.543125 157.90234375 1.883125 157.90234375 1.203125 C161.53710676 0.36719601 164.88425155 0.081188 168.6105957 0.08959961 C170.29177238 0.08971291 170.29177238 0.08971291 172.00691223 0.08982849 C173.20603745 0.09498978 174.40516266 0.10015106 175.640625 0.10546875 C176.87652878 0.1068837 178.11243256 0.10829865 179.38578796 0.10975647 C182.6589272 0.11439882 185.93201662 0.12337189 189.20513916 0.13446045 C192.55016623 0.14472096 195.89519548 0.14917869 199.24023438 0.15429688 C205.79429025 0.16531593 212.34831293 0.18204664 218.90234375 0.203125 C218.90234375 3.203125 218.90234375 3.203125 217.52734375 4.890625 C215.90234375 6.203125 215.90234375 6.203125 213.90234375 6.203125 C213.90234375 6.863125 213.90234375 7.523125 213.90234375 8.203125 C212.24019107 9.54208132 210.57270768 10.87442642 208.90234375 12.203125 C207.53989579 13.84607695 206.203695 15.51136837 204.90234375 17.203125 C203.27734375 19.015625 203.27734375 19.015625 201.90234375 20.203125 C201.24234375 20.203125 200.58234375 20.203125 199.90234375 20.203125 C199.90234375 20.863125 199.90234375 21.523125 199.90234375 22.203125 C199.24234375 22.203125 198.58234375 22.203125 197.90234375 22.203125 C197.57234375 23.523125 197.24234375 24.843125 196.90234375 26.203125 C196.24234375 26.203125 195.58234375 26.203125 194.90234375 26.203125 C194.57234375 27.193125 194.24234375 28.183125 193.90234375 29.203125 C193.24234375 29.203125 192.58234375 29.203125 191.90234375 29.203125 C191.57234375 30.193125 191.24234375 31.183125 190.90234375 32.203125 C190.24234375 32.203125 189.58234375 32.203125 188.90234375 32.203125 C188.57234375 33.193125 188.24234375 34.183125 187.90234375 35.203125 C187.24234375 35.203125 186.58234375 35.203125 185.90234375 35.203125 C185.63421875 35.8425 185.36609375 36.481875 185.08984375 37.140625 C183.90234375 39.203125 183.90234375 39.203125 180.90234375 40.203125 C180.57234375 41.193125 180.24234375 42.183125 179.90234375 43.203125 C179.24234375 43.203125 178.58234375 43.203125 177.90234375 43.203125 C177.57234375 44.193125 177.24234375 45.183125 176.90234375 46.203125 C176.24234375 46.203125 175.58234375 46.203125 174.90234375 46.203125 C174.57234375 47.193125 174.24234375 48.183125 173.90234375 49.203125 C173.24234375 49.203125 172.58234375 49.203125 171.90234375 49.203125 C171.84046875 49.739375 171.77859375 50.275625 171.71484375 50.828125 C169.82968942 56.33857612 165.30549135 59.70318716 160.90234375 63.203125 C160.18046875 64.110625 159.45859375 65.018125 158.71484375 65.953125 C158.11671875 66.695625 157.51859375 67.438125 156.90234375 68.203125 C156.24234375 68.203125 155.58234375 68.203125 154.90234375 68.203125 C154.57234375 69.193125 154.24234375 70.183125 153.90234375 71.203125 C153.24234375 71.203125 152.58234375 71.203125 151.90234375 71.203125 C151.90234375 71.863125 151.90234375 72.523125 151.90234375 73.203125 C150.52734375 74.828125 150.52734375 74.828125 148.90234375 76.203125 C148.24234375 76.203125 147.58234375 76.203125 146.90234375 76.203125 C146.57234375 77.523125 146.24234375 78.843125 145.90234375 80.203125 C145.24234375 80.203125 144.58234375 80.203125 143.90234375 80.203125 C143.57234375 81.193125 143.24234375 82.183125 142.90234375 83.203125 C142.24234375 83.203125 141.58234375 83.203125 140.90234375 83.203125 C140.84046875 83.780625 140.77859375 84.358125 140.71484375 84.953125 C139.56850201 88.12760983 137.64277533 89.33161075 134.90234375 91.203125 C134.24234375 91.203125 133.58234375 91.203125 132.90234375 91.203125 C132.74765625 92.3478125 132.74765625 92.3478125 132.58984375 93.515625 C131.85523181 96.38728984 131.23073725 97.43354594 128.90234375 99.203125 C128.24234375 99.203125 127.58234375 99.203125 126.90234375 99.203125 C126.57234375 100.193125 126.24234375 101.183125 125.90234375 102.203125 C125.24234375 102.203125 124.58234375 102.203125 123.90234375 102.203125 C123.57234375 103.193125 123.24234375 104.183125 122.90234375 105.203125 C122.24234375 105.203125 121.58234375 105.203125 120.90234375 105.203125 C119.58607683 108.82285902 118.90234375 111.29879631 118.90234375 115.203125 C120.22234375 115.533125 121.54234375 115.863125 122.90234375 116.203125 C123.23234375 117.853125 123.56234375 119.503125 123.90234375 121.203125 C124.56234375 121.203125 125.22234375 121.203125 125.90234375 121.203125 C126.23234375 122.853125 126.56234375 124.503125 126.90234375 126.203125 C127.56234375 126.203125 128.22234375 126.203125 128.90234375 126.203125 C132.90234375 132.828125 132.90234375 132.828125 132.90234375 136.203125 C133.56234375 136.203125 134.22234375 136.203125 134.90234375 136.203125 C134.90234375 136.863125 134.90234375 137.523125 134.90234375 138.203125 C135.56234375 138.203125 136.22234375 138.203125 136.90234375 138.203125 C137.24007813 138.81800781 137.5778125 139.43289063 137.92578125 140.06640625 C138.37179687 140.87464844 138.8178125 141.68289063 139.27734375 142.515625 C139.71820312 143.31613281 140.1590625 144.11664062 140.61328125 144.94140625 C141.6374771 146.73840443 142.75501513 148.48213208 143.90234375 150.203125 C143.90234375 151.193125 143.90234375 152.183125 143.90234375 153.203125 C144.56234375 153.203125 145.22234375 153.203125 145.90234375 153.203125 C146.23234375 154.853125 146.56234375 156.503125 146.90234375 158.203125 C147.89234375 158.533125 148.88234375 158.863125 149.90234375 159.203125 C149.90234375 160.523125 149.90234375 161.843125 149.90234375 163.203125 C150.89234375 163.533125 151.88234375 163.863125 152.90234375 164.203125 C154.90234375 167.203125 154.90234375 167.203125 154.90234375 170.203125 C155.56234375 170.203125 156.22234375 170.203125 156.90234375 170.203125 C157.23234375 171.853125 157.56234375 173.503125 157.90234375 175.203125 C158.56234375 175.203125 159.22234375 175.203125 159.90234375 175.203125 C160.23234375 176.853125 160.56234375 178.503125 160.90234375 180.203125 C161.89234375 180.533125 162.88234375 180.863125 163.90234375 181.203125 C163.90234375 182.193125 163.90234375 183.183125 163.90234375 184.203125 C164.56234375 184.203125 165.22234375 184.203125 165.90234375 184.203125 C166.23234375 185.853125 166.56234375 187.503125 166.90234375 189.203125 C167.56234375 189.203125 168.22234375 189.203125 168.90234375 189.203125 C168.90234375 190.193125 168.90234375 191.183125 168.90234375 192.203125 C169.56234375 192.203125 170.22234375 192.203125 170.90234375 192.203125 C171.23234375 193.853125 171.56234375 195.503125 171.90234375 197.203125 C172.89234375 197.533125 173.88234375 197.863125 174.90234375 198.203125 C174.90234375 199.193125 174.90234375 200.183125 174.90234375 201.203125 C175.56234375 201.203125 176.22234375 201.203125 176.90234375 201.203125 C177.23234375 202.853125 177.56234375 204.503125 177.90234375 206.203125 C178.56234375 206.203125 179.22234375 206.203125 179.90234375 206.203125 C181.02734375 209.953125 181.02734375 209.953125 179.90234375 212.203125 C163.73234375 212.203125 147.56234375 212.203125 130.90234375 212.203125 C130.90234375 211.543125 130.90234375 210.883125 130.90234375 210.203125 C129.82984375 210.14125 128.75734375 210.079375 127.65234375 210.015625 C123.90234375 209.203125 123.90234375 209.203125 121.46484375 206.828125 C119.90234375 204.203125 119.90234375 204.203125 119.90234375 201.203125 C118.94328125 200.831875 118.94328125 200.831875 117.96484375 200.453125 C115.90234375 199.203125 115.90234375 199.203125 115.15234375 197.078125 C115.06984375 196.459375 114.98734375 195.840625 114.90234375 195.203125 C114.24234375 195.203125 113.58234375 195.203125 112.90234375 195.203125 C112.57234375 193.553125 112.24234375 191.903125 111.90234375 190.203125 C111.24234375 190.203125 110.58234375 190.203125 109.90234375 190.203125 C109.57234375 188.883125 109.24234375 187.563125 108.90234375 186.203125 C108.24234375 186.203125 107.58234375 186.203125 106.90234375 186.203125 C106.57234375 184.553125 106.24234375 182.903125 105.90234375 181.203125 C105.24234375 181.203125 104.58234375 181.203125 103.90234375 181.203125 C103.81984375 180.419375 103.73734375 179.635625 103.65234375 178.828125 C103.28109375 177.52875 103.28109375 177.52875 102.90234375 176.203125 C101.58587256 175.50374968 100.25212224 174.83583367 98.90234375 174.203125 C98.15234375 172.078125 98.15234375 172.078125 97.90234375 170.203125 C97.24234375 170.203125 96.58234375 170.203125 95.90234375 170.203125 C95.63679687 169.63722656 95.37125 169.07132813 95.09765625 168.48828125 C94.56785156 167.38806641 94.56785156 167.38806641 94.02734375 166.265625 C93.50527344 165.16927734 93.50527344 165.16927734 92.97265625 164.05078125 C92.03384605 162.03980041 92.03384605 162.03980041 89.90234375 161.203125 C89.27734375 158.640625 89.27734375 158.640625 88.90234375 156.203125 C88.24234375 156.203125 87.58234375 156.203125 86.90234375 156.203125 C86.57234375 155.213125 86.24234375 154.223125 85.90234375 153.203125 C85.24234375 152.873125 84.58234375 152.543125 83.90234375 152.203125 C83.90234375 151.543125 83.90234375 150.883125 83.90234375 150.203125 C83.24234375 150.203125 82.58234375 150.203125 81.90234375 150.203125 C81.57234375 151.193125 81.24234375 152.183125 80.90234375 153.203125 C80.24234375 153.203125 79.58234375 153.203125 78.90234375 153.203125 C78.57234375 154.193125 78.24234375 155.183125 77.90234375 156.203125 C77.24234375 156.203125 76.58234375 156.203125 75.90234375 156.203125 C75.57234375 157.193125 75.24234375 158.183125 74.90234375 159.203125 C74.24234375 159.203125 73.58234375 159.203125 72.90234375 159.203125 C72.90234375 159.863125 72.90234375 160.523125 72.90234375 161.203125 C72.24234375 161.203125 71.58234375 161.203125 70.90234375 161.203125 C70.57234375 162.523125 70.24234375 163.843125 69.90234375 165.203125 C69.24234375 165.203125 68.58234375 165.203125 67.90234375 165.203125 C67.84046875 165.780625 67.77859375 166.358125 67.71484375 166.953125 C66.57795842 170.10142284 64.53327146 171.18404094 61.90234375 173.203125 C61.18046875 174.110625 60.45859375 175.018125 59.71484375 175.953125 C59.11671875 176.695625 58.51859375 177.438125 57.90234375 178.203125 C57.24234375 178.203125 56.58234375 178.203125 55.90234375 178.203125 C55.90234375 178.863125 55.90234375 179.523125 55.90234375 180.203125 C54.52734375 181.828125 54.52734375 181.828125 52.90234375 183.203125 C52.24234375 183.203125 51.58234375 183.203125 50.90234375 183.203125 C50.57234375 184.523125 50.24234375 185.843125 49.90234375 187.203125 C49.24234375 187.203125 48.58234375 187.203125 47.90234375 187.203125 C47.57234375 188.193125 47.24234375 189.183125 46.90234375 190.203125 C46.24234375 190.203125 45.58234375 190.203125 44.90234375 190.203125 C44.57234375 191.193125 44.24234375 192.183125 43.90234375 193.203125 C43.24234375 193.203125 42.58234375 193.203125 41.90234375 193.203125 C41.90234375 193.863125 41.90234375 194.523125 41.90234375 195.203125 C41.24234375 195.203125 40.58234375 195.203125 39.90234375 195.203125 C39.57234375 196.193125 39.24234375 197.183125 38.90234375 198.203125 C38.24234375 198.203125 37.58234375 198.203125 36.90234375 198.203125 C36.57234375 199.193125 36.24234375 200.183125 35.90234375 201.203125 C35.24234375 201.203125 34.58234375 201.203125 33.90234375 201.203125 C33.57234375 202.193125 33.24234375 203.183125 32.90234375 204.203125 C32.24234375 204.203125 31.58234375 204.203125 30.90234375 204.203125 C30.57234375 205.193125 30.24234375 206.183125 29.90234375 207.203125 C29.24234375 207.203125 28.58234375 207.203125 27.90234375 207.203125 C27.59296875 207.821875 27.28359375 208.440625 26.96484375 209.078125 C26.27734375 210.453125 25.58984375 211.828125 24.90234375 213.203125 C24.24234375 213.203125 23.58234375 213.203125 22.90234375 213.203125 C22.84046875 213.780625 22.77859375 214.358125 22.71484375 214.953125 C21.57795842 218.10142284 19.53327146 219.18404094 16.90234375 221.203125 C16.18046875 222.110625 15.45859375 223.018125 14.71484375 223.953125 C14.11671875 224.695625 13.51859375 225.438125 12.90234375 226.203125 C12.24234375 226.203125 11.58234375 226.203125 10.90234375 226.203125 C10.57234375 227.193125 10.24234375 228.183125 9.90234375 229.203125 C9.24234375 229.203125 8.58234375 229.203125 7.90234375 229.203125 C7.90234375 229.863125 7.90234375 230.523125 7.90234375 231.203125 C7.15984375 231.780625 6.41734375 232.358125 5.65234375 232.953125 C2.66185325 235.39988996 1.01409934 237.99908203 -1.09765625 241.203125 C-1.75765625 241.203125 -2.41765625 241.203125 -3.09765625 241.203125 C-3.09765625 241.863125 -3.09765625 242.523125 -3.09765625 243.203125 C-4.47265625 244.828125 -4.47265625 244.828125 -6.09765625 246.203125 C-6.75765625 246.203125 -7.41765625 246.203125 -8.09765625 246.203125 C-8.09765625 246.863125 -8.09765625 247.523125 -8.09765625 248.203125 C-9.08765625 248.533125 -10.07765625 248.863125 -11.09765625 249.203125 C-11.71640625 250.028125 -12.33515625 250.853125 -12.97265625 251.703125 C-15.36901222 254.52236732 -16.49443265 254.90285637 -20.09765625 255.203125 C-20.09765625 255.863125 -20.09765625 256.523125 -20.09765625 257.203125 C-22.01822917 257.91927083 -23.93880208 258.63541667 -25.859375 259.3515625 C-27.39444506 259.93558567 -28.91140591 260.56886037 -30.4094696 261.24215698 C-33.25664405 262.25995967 -35.33588909 262.44511888 -38.34692383 262.43017578 C-39.36760452 262.43002472 -40.38828522 262.42987366 -41.43989563 262.42971802 C-43.07453011 262.41423416 -43.07453011 262.41423416 -44.7421875 262.3984375 C-45.86711105 262.3956076 -46.99203461 262.39277771 -48.15104675 262.38986206 C-51.73752561 262.37868336 -55.3237531 262.35358263 -58.91015625 262.328125 C-61.34439743 262.31809223 -63.77864253 262.3089669 -66.21289062 262.30078125 C-72.17456467 262.27875156 -78.1360925 262.24529674 -84.09765625 262.203125 C-84.59265625 260.718125 -84.59265625 260.718125 -85.09765625 259.203125 C-84.43765625 259.203125 -83.77765625 259.203125 -83.09765625 259.203125 C-82.76765625 258.213125 -82.43765625 257.223125 -82.09765625 256.203125 C-81.43765625 256.203125 -80.77765625 256.203125 -80.09765625 256.203125 C-80.01515625 255.625625 -79.93265625 255.048125 -79.84765625 254.453125 C-78.87770714 251.54327766 -77.31994524 250.29842605 -75.09765625 248.203125 C-73.75938321 246.54042213 -72.4257584 244.87396319 -71.09765625 243.203125 C-69.47265625 241.390625 -69.47265625 241.390625 -68.09765625 240.203125 C-67.43765625 240.203125 -66.77765625 240.203125 -66.09765625 240.203125 C-65.76765625 239.213125 -65.43765625 238.223125 -65.09765625 237.203125 C-64.43765625 237.203125 -63.77765625 237.203125 -63.09765625 237.203125 C-62.76765625 236.213125 -62.43765625 235.223125 -62.09765625 234.203125 C-61.43765625 234.203125 -60.77765625 234.203125 -60.09765625 234.203125 C-59.76765625 233.213125 -59.43765625 232.223125 -59.09765625 231.203125 C-58.43765625 231.203125 -57.77765625 231.203125 -57.09765625 231.203125 C-57.09765625 230.543125 -57.09765625 229.883125 -57.09765625 229.203125 C-55.72265625 227.578125 -55.72265625 227.578125 -54.09765625 226.203125 C-53.43765625 226.203125 -52.77765625 226.203125 -52.09765625 226.203125 C-51.76765625 225.213125 -51.43765625 224.223125 -51.09765625 223.203125 C-50.43765625 223.203125 -49.77765625 223.203125 -49.09765625 223.203125 C-48.9584375 222.30980469 -48.9584375 222.30980469 -48.81640625 221.3984375 C-47.93108528 218.69435931 -46.81805387 217.81622313 -44.59765625 216.078125 C-41.90961785 214.00424819 -41.90961785 214.00424819 -40.09765625 211.203125 C-39.43765625 211.203125 -38.77765625 211.203125 -38.09765625 211.203125 C-38.09765625 210.543125 -38.09765625 209.883125 -38.09765625 209.203125 C-37.10765625 209.203125 -36.11765625 209.203125 -35.09765625 209.203125 C-34.76765625 208.213125 -34.43765625 207.223125 -34.09765625 206.203125 C-33.43765625 206.203125 -32.77765625 206.203125 -32.09765625 206.203125 C-31.76765625 205.213125 -31.43765625 204.223125 -31.09765625 203.203125 C-30.43765625 203.203125 -29.77765625 203.203125 -29.09765625 203.203125 C-28.76765625 202.213125 -28.43765625 201.223125 -28.09765625 200.203125 C-27.43765625 200.203125 -26.77765625 200.203125 -26.09765625 200.203125 C-26.09765625 199.543125 -26.09765625 198.883125 -26.09765625 198.203125 C-25.43765625 197.873125 -24.77765625 197.543125 -24.09765625 197.203125 C-23.76765625 196.213125 -23.43765625 195.223125 -23.09765625 194.203125 C-22.43765625 194.203125 -21.77765625 194.203125 -21.09765625 194.203125 C-21.03578125 193.625625 -20.97390625 193.048125 -20.91015625 192.453125 C-19.77996865 189.32337472 -17.68747933 188.23798599 -15.09765625 186.203125 C-14.60265625 185.378125 -14.10765625 184.553125 -13.59765625 183.703125 C-11.84712152 180.78556711 -9.78251799 179.25209844 -7.09765625 177.203125 C-6.76765625 176.543125 -6.43765625 175.883125 -6.09765625 175.203125 C-5.43765625 175.203125 -4.77765625 175.203125 -4.09765625 175.203125 C-3.76765625 174.213125 -3.43765625 173.223125 -3.09765625 172.203125 C-2.43765625 172.203125 -1.77765625 172.203125 -1.09765625 172.203125 C-0.76765625 171.213125 -0.43765625 170.223125 -0.09765625 169.203125 C0.56234375 169.203125 1.22234375 169.203125 1.90234375 169.203125 C1.90234375 168.213125 1.90234375 167.223125 1.90234375 166.203125 C2.56234375 166.203125 3.22234375 166.203125 3.90234375 166.203125 C4.23234375 165.213125 4.56234375 164.223125 4.90234375 163.203125 C5.56234375 163.203125 6.22234375 163.203125 6.90234375 163.203125 C6.96421875 162.625625 7.02609375 162.048125 7.08984375 161.453125 C8.22452395 158.31093369 10.29479907 157.28916075 12.90234375 155.203125 C14.50662961 153.22088709 15.99631164 151.18432157 17.47265625 149.10546875 C18.84349785 147.28142541 20.17871457 145.69848977 21.90234375 144.203125 C22.56234375 144.203125 23.22234375 144.203125 23.90234375 144.203125 C24.23234375 143.213125 24.56234375 142.223125 24.90234375 141.203125 C25.56234375 141.203125 26.22234375 141.203125 26.90234375 141.203125 C27.23234375 140.213125 27.56234375 139.223125 27.90234375 138.203125 C28.56234375 138.203125 29.22234375 138.203125 29.90234375 138.203125 C30.23234375 137.213125 30.56234375 136.223125 30.90234375 135.203125 C31.56234375 135.203125 32.22234375 135.203125 32.90234375 135.203125 C32.99515625 134.39875 32.99515625 134.39875 33.08984375 133.578125 C34.97499808 128.06767388 39.49919615 124.70306284 43.90234375 121.203125 C44.62421875 120.295625 45.34609375 119.388125 46.08984375 118.453125 C46.68796875 117.710625 47.28609375 116.968125 47.90234375 116.203125 C48.56234375 116.203125 49.22234375 116.203125 49.90234375 116.203125 C49.90234375 115.213125 49.90234375 114.223125 49.90234375 113.203125 C50.56234375 113.203125 51.22234375 113.203125 51.90234375 113.203125 C52.23234375 112.213125 52.56234375 111.223125 52.90234375 110.203125 C53.56234375 110.203125 54.22234375 110.203125 54.90234375 110.203125 C54.90234375 109.213125 54.90234375 108.223125 54.90234375 107.203125 C54.24234375 107.203125 53.58234375 107.203125 52.90234375 107.203125 C52.90234375 106.213125 52.90234375 105.223125 52.90234375 104.203125 C52.24234375 104.203125 51.58234375 104.203125 50.90234375 104.203125 C50.57234375 102.553125 50.24234375 100.903125 49.90234375 99.203125 C49.24234375 99.203125 48.58234375 99.203125 47.90234375 99.203125 C43.90234375 93.79136029 43.90234375 93.79136029 43.90234375 91.203125 C43.24234375 91.203125 42.58234375 91.203125 41.90234375 91.203125 C39.8606489 88.29763618 38.90234375 86.80170454 38.90234375 83.203125 C37.41734375 82.708125 37.41734375 82.708125 35.90234375 82.203125 C35.90234375 81.213125 35.90234375 80.223125 35.90234375 79.203125 C35.24234375 79.203125 34.58234375 79.203125 33.90234375 79.203125 C29.90234375 73.79136029 29.90234375 73.79136029 29.90234375 71.203125 C29.24234375 71.203125 28.58234375 71.203125 27.90234375 71.203125 C27.57234375 69.553125 27.24234375 67.903125 26.90234375 66.203125 C26.24234375 66.203125 25.58234375 66.203125 24.90234375 66.203125 C24.57234375 65.213125 24.24234375 64.223125 23.90234375 63.203125 C23.24234375 62.873125 22.58234375 62.543125 21.90234375 62.203125 C21.90234375 61.213125 21.90234375 60.223125 21.90234375 59.203125 C21.24234375 59.203125 20.58234375 59.203125 19.90234375 59.203125 C19.57234375 57.553125 19.24234375 55.903125 18.90234375 54.203125 C17.41734375 53.708125 17.41734375 53.708125 15.90234375 53.203125 C12.90234375 48.86979167 12.90234375 48.86979167 12.90234375 46.203125 C12.24234375 46.203125 11.58234375 46.203125 10.90234375 46.203125 C10.57234375 45.213125 10.24234375 44.223125 9.90234375 43.203125 C9.24234375 42.873125 8.58234375 42.543125 7.90234375 42.203125 C7.27734375 39.640625 7.27734375 39.640625 6.90234375 37.203125 C6.24234375 37.203125 5.58234375 37.203125 4.90234375 37.203125 C3.39453125 35.3046875 3.39453125 35.3046875 1.77734375 32.828125 C1.23851562 32.01601563 0.6996875 31.20390625 0.14453125 30.3671875 C-1.09765625 28.203125 -1.09765625 28.203125 -1.09765625 26.203125 C-1.75765625 26.203125 -2.41765625 26.203125 -3.09765625 26.203125 C-3.59265625 24.223125 -3.59265625 24.223125 -4.09765625 22.203125 C-4.75765625 22.203125 -5.41765625 22.203125 -6.09765625 22.203125 C-6.42765625 20.553125 -6.75765625 18.903125 -7.09765625 17.203125 C-7.75765625 17.203125 -8.41765625 17.203125 -9.09765625 17.203125 C-9.09765625 16.543125 -9.09765625 15.883125 -9.09765625 15.203125 C-9.75765625 15.203125 -10.41765625 15.203125 -11.09765625 15.203125 C-11.59265625 13.718125 -11.59265625 13.718125 -12.09765625 12.203125 C-13.08765625 11.708125 -13.08765625 11.708125 -14.09765625 11.203125 C-14.72265625 8.640625 -14.72265625 8.640625 -15.09765625 6.203125 C-15.75765625 6.203125 -16.41765625 6.203125 -17.09765625 6.203125 C-17.66015625 4.265625 -17.66015625 4.265625 -18.09765625 2.203125 C-14.59240277 -1.30212848 -4.62492847 0.02165894 0 0 Z " fill="#0089E2" transform="translate(894.09765625,405.796875)"/>
<path d="M0 0 C1.68117668 0.0001133 1.68117668 0.0001133 3.39631653 0.00022888 C4.59544174 0.00539017 5.79456696 0.01055145 7.0300293 0.01586914 C8.26593307 0.01728409 9.50183685 0.01869904 10.77519226 0.02015686 C14.0483315 0.02479921 17.32142092 0.03377228 20.59454346 0.04486084 C23.93957053 0.05512135 27.28459978 0.05957908 30.62963867 0.06469727 C37.18369455 0.07571632 43.73771722 0.09244703 50.29174805 0.11352539 C50.29174805 3.11352539 50.29174805 3.11352539 48.91674805 4.80102539 C47.29174805 6.11352539 47.29174805 6.11352539 45.29174805 6.11352539 C45.29174805 6.77352539 45.29174805 7.43352539 45.29174805 8.11352539 C43.62959537 9.45248171 41.96211197 10.78482681 40.29174805 12.11352539 C38.92930009 13.75647734 37.5930993 15.42176877 36.29174805 17.11352539 C34.66674805 18.92602539 34.66674805 18.92602539 33.29174805 20.11352539 C32.63174805 20.11352539 31.97174805 20.11352539 31.29174805 20.11352539 C31.29174805 20.77352539 31.29174805 21.43352539 31.29174805 22.11352539 C30.63174805 22.11352539 29.97174805 22.11352539 29.29174805 22.11352539 C28.96174805 23.43352539 28.63174805 24.75352539 28.29174805 26.11352539 C27.63174805 26.11352539 26.97174805 26.11352539 26.29174805 26.11352539 C25.79674805 27.59852539 25.79674805 27.59852539 25.29174805 29.11352539 C24.63174805 29.11352539 23.97174805 29.11352539 23.29174805 29.11352539 C22.79674805 30.59852539 22.79674805 30.59852539 22.29174805 32.11352539 C21.63174805 32.11352539 20.97174805 32.11352539 20.29174805 32.11352539 C19.96174805 33.10352539 19.63174805 34.09352539 19.29174805 35.11352539 C18.63174805 35.11352539 17.97174805 35.11352539 17.29174805 35.11352539 C17.02362305 35.75290039 16.75549805 36.39227539 16.47924805 37.05102539 C15.29174805 39.11352539 15.29174805 39.11352539 12.29174805 40.11352539 C11.96174805 41.10352539 11.63174805 42.09352539 11.29174805 43.11352539 C10.63174805 43.11352539 9.97174805 43.11352539 9.29174805 43.11352539 C8.96174805 44.10352539 8.63174805 45.09352539 8.29174805 46.11352539 C7.63174805 46.11352539 6.97174805 46.11352539 6.29174805 46.11352539 C5.96174805 47.10352539 5.63174805 48.09352539 5.29174805 49.11352539 C4.63174805 49.11352539 3.97174805 49.11352539 3.29174805 49.11352539 C3.19893555 49.91790039 3.19893555 49.91790039 3.10424805 50.73852539 C1.21909372 56.24897651 -3.30510435 59.61358755 -7.70825195 63.11352539 C-8.43012695 64.02102539 -9.15200195 64.92852539 -9.89575195 65.86352539 C-10.49387695 66.60602539 -11.09200195 67.34852539 -11.70825195 68.11352539 C-12.36825195 68.11352539 -13.02825195 68.11352539 -13.70825195 68.11352539 C-14.20325195 69.59852539 -14.20325195 69.59852539 -14.70825195 71.11352539 C-15.36825195 71.11352539 -16.02825195 71.11352539 -16.70825195 71.11352539 C-16.70825195 71.77352539 -16.70825195 72.43352539 -16.70825195 73.11352539 C-18.08325195 74.73852539 -18.08325195 74.73852539 -19.70825195 76.11352539 C-20.36825195 76.11352539 -21.02825195 76.11352539 -21.70825195 76.11352539 C-22.20325195 78.09352539 -22.20325195 78.09352539 -22.70825195 80.11352539 C-23.36825195 80.11352539 -24.02825195 80.11352539 -24.70825195 80.11352539 C-25.20325195 81.59852539 -25.20325195 81.59852539 -25.70825195 83.11352539 C-26.36825195 83.11352539 -27.02825195 83.11352539 -27.70825195 83.11352539 C-27.80106445 83.97977539 -27.80106445 83.97977539 -27.89575195 84.86352539 C-29.0420937 88.03801022 -30.96782038 89.24201114 -33.70825195 91.11352539 C-34.36825195 91.11352539 -35.02825195 91.11352539 -35.70825195 91.11352539 C-35.81137695 91.87665039 -35.91450195 92.63977539 -36.02075195 93.42602539 C-36.75536389 96.29769023 -37.37985845 97.34394633 -39.70825195 99.11352539 C-40.36825195 99.11352539 -41.02825195 99.11352539 -41.70825195 99.11352539 C-42.20325195 100.59852539 -42.20325195 100.59852539 -42.70825195 102.11352539 C-43.36825195 102.11352539 -44.02825195 102.11352539 -44.70825195 102.11352539 C-45.20325195 103.59852539 -45.20325195 103.59852539 -45.70825195 105.11352539 C-46.36825195 105.11352539 -47.02825195 105.11352539 -47.70825195 105.11352539 C-49.02451887 108.73325941 -49.70825195 111.2091967 -49.70825195 115.11352539 C-48.38825195 115.44352539 -47.06825195 115.77352539 -45.70825195 116.11352539 C-45.37825195 117.76352539 -45.04825195 119.41352539 -44.70825195 121.11352539 C-44.04825195 121.11352539 -43.38825195 121.11352539 -42.70825195 121.11352539 C-42.37825195 122.76352539 -42.04825195 124.41352539 -41.70825195 126.11352539 C-41.04825195 126.11352539 -40.38825195 126.11352539 -39.70825195 126.11352539 C-35.70825195 132.73852539 -35.70825195 132.73852539 -35.70825195 136.11352539 C-35.04825195 136.11352539 -34.38825195 136.11352539 -33.70825195 136.11352539 C-33.70825195 136.77352539 -33.70825195 137.43352539 -33.70825195 138.11352539 C-33.04825195 138.11352539 -32.38825195 138.11352539 -31.70825195 138.11352539 C-31.37051758 138.7284082 -31.0327832 139.34329102 -30.68481445 139.97680664 C-30.23879883 140.78504883 -29.7927832 141.59329102 -29.33325195 142.42602539 C-28.89239258 143.2265332 -28.4515332 144.02704102 -27.99731445 144.85180664 C-26.9731186 146.64880482 -25.85558057 148.39253247 -24.70825195 150.11352539 C-24.70825195 151.10352539 -24.70825195 152.09352539 -24.70825195 153.11352539 C-24.04825195 153.11352539 -23.38825195 153.11352539 -22.70825195 153.11352539 C-22.21325195 155.58852539 -22.21325195 155.58852539 -21.70825195 158.11352539 C-20.71825195 158.44352539 -19.72825195 158.77352539 -18.70825195 159.11352539 C-18.70825195 160.43352539 -18.70825195 161.75352539 -18.70825195 163.11352539 C-17.71825195 163.44352539 -16.72825195 163.77352539 -15.70825195 164.11352539 C-13.70825195 167.11352539 -13.70825195 167.11352539 -13.70825195 170.11352539 C-13.04825195 170.11352539 -12.38825195 170.11352539 -11.70825195 170.11352539 C-11.21325195 172.58852539 -11.21325195 172.58852539 -10.70825195 175.11352539 C-10.04825195 175.11352539 -9.38825195 175.11352539 -8.70825195 175.11352539 C-8.21325195 177.58852539 -8.21325195 177.58852539 -7.70825195 180.11352539 C-6.71825195 180.44352539 -5.72825195 180.77352539 -4.70825195 181.11352539 C-4.70825195 182.10352539 -4.70825195 183.09352539 -4.70825195 184.11352539 C-4.04825195 184.11352539 -3.38825195 184.11352539 -2.70825195 184.11352539 C-2.21325195 186.58852539 -2.21325195 186.58852539 -1.70825195 189.11352539 C-1.04825195 189.11352539 -0.38825195 189.11352539 0.29174805 189.11352539 C0.29174805 190.10352539 0.29174805 191.09352539 0.29174805 192.11352539 C0.95174805 192.11352539 1.61174805 192.11352539 2.29174805 192.11352539 C2.78674805 194.58852539 2.78674805 194.58852539 3.29174805 197.11352539 C4.28174805 197.44352539 5.27174805 197.77352539 6.29174805 198.11352539 C6.29174805 199.10352539 6.29174805 200.09352539 6.29174805 201.11352539 C6.95174805 201.11352539 7.61174805 201.11352539 8.29174805 201.11352539 C8.78674805 203.58852539 8.78674805 203.58852539 9.29174805 206.11352539 C9.95174805 206.11352539 10.61174805 206.11352539 11.29174805 206.11352539 C12.41674805 209.86352539 12.41674805 209.86352539 11.29174805 212.11352539 C-4.87825195 212.11352539 -21.04825195 212.11352539 -37.70825195 212.11352539 C-37.70825195 211.45352539 -37.70825195 210.79352539 -37.70825195 210.11352539 C-38.78075195 210.05165039 -39.85325195 209.98977539 -40.95825195 209.92602539 C-44.70825195 209.11352539 -44.70825195 209.11352539 -47.14575195 206.73852539 C-48.70825195 204.11352539 -48.70825195 204.11352539 -48.70825195 201.11352539 C-49.66731445 200.74227539 -49.66731445 200.74227539 -50.64575195 200.36352539 C-52.70825195 199.11352539 -52.70825195 199.11352539 -53.45825195 196.98852539 C-53.58200195 196.06040039 -53.58200195 196.06040039 -53.70825195 195.11352539 C-54.36825195 195.11352539 -55.02825195 195.11352539 -55.70825195 195.11352539 C-56.03825195 193.46352539 -56.36825195 191.81352539 -56.70825195 190.11352539 C-57.36825195 190.11352539 -58.02825195 190.11352539 -58.70825195 190.11352539 C-59.20325195 188.13352539 -59.20325195 188.13352539 -59.70825195 186.11352539 C-60.36825195 186.11352539 -61.02825195 186.11352539 -61.70825195 186.11352539 C-62.03825195 184.46352539 -62.36825195 182.81352539 -62.70825195 181.11352539 C-63.36825195 181.11352539 -64.02825195 181.11352539 -64.70825195 181.11352539 C-64.79075195 180.32977539 -64.87325195 179.54602539 -64.95825195 178.73852539 C-65.20575195 177.87227539 -65.45325195 177.00602539 -65.70825195 176.11352539 C-67.02472314 175.41415007 -68.35847347 174.74623406 -69.70825195 174.11352539 C-70.45825195 171.98852539 -70.45825195 171.98852539 -70.70825195 170.11352539 C-71.36825195 170.11352539 -72.02825195 170.11352539 -72.70825195 170.11352539 C-72.21325195 168.13352539 -72.21325195 168.13352539 -71.70825195 166.11352539 C-66.86482669 168.18927908 -65.39218311 171.12787329 -63.0871582 175.58618164 C-61.15519035 179.12721053 -58.82753485 182.33207571 -56.48950195 185.61352539 C-54.72130152 188.0952102 -52.98331945 190.59314303 -51.27075195 193.11352539 C-50.77704102 193.83540039 -50.28333008 194.55727539 -49.7746582 195.30102539 C-48.70825195 197.11352539 -48.70825195 197.11352539 -48.70825195 199.11352539 C-48.04825195 199.11352539 -47.38825195 199.11352539 -46.70825195 199.11352539 C-46.70825195 200.10352539 -46.70825195 201.09352539 -46.70825195 202.11352539 C-45.71825195 202.44352539 -44.72825195 202.77352539 -43.70825195 203.11352539 C-43.70825195 203.77352539 -43.70825195 204.43352539 -43.70825195 205.11352539 C-43.04825195 205.11352539 -42.38825195 205.11352539 -41.70825195 205.11352539 C-41.70825195 205.77352539 -41.70825195 206.43352539 -41.70825195 207.11352539 C-26.19825195 207.11352539 -10.68825195 207.11352539 5.29174805 207.11352539 C4.96174805 205.13352539 4.63174805 203.15352539 4.29174805 201.11352539 C3.63174805 201.11352539 2.97174805 201.11352539 2.29174805 201.11352539 C0.56518555 198.59399414 0.56518555 198.59399414 -1.33325195 195.30102539 C-1.96489258 194.22208008 -2.5965332 193.14313477 -3.24731445 192.03149414 C-4.70825195 189.11352539 -4.70825195 189.11352539 -4.70825195 186.11352539 C-5.30637695 185.90727539 -5.90450195 185.70102539 -6.52075195 185.48852539 C-9.58810252 183.56047647 -10.17887889 181.40755968 -11.70825195 178.11352539 C-13.24274672 175.51699872 -14.81892269 172.94923023 -16.40356445 170.38305664 C-17.70825195 168.11352539 -17.70825195 168.11352539 -18.70825195 165.11352539 C-19.36825195 165.11352539 -20.02825195 165.11352539 -20.70825195 165.11352539 C-20.70825195 164.12352539 -20.70825195 163.13352539 -20.70825195 162.11352539 C-21.36825195 162.11352539 -22.02825195 162.11352539 -22.70825195 162.11352539 C-24.05726134 160.18679455 -25.31199433 158.19370303 -26.52075195 156.17602539 C-27.05152344 155.2927356 -27.05152344 155.2927356 -27.59301758 154.39160156 C-28.64137396 152.63789611 -29.67724561 150.87747704 -30.70825195 149.11352539 C-31.24836914 148.19055664 -31.78848633 147.26758789 -32.3449707 146.31665039 C-35.70825195 140.41886207 -35.70825195 140.41886207 -35.70825195 138.11352539 C-36.36825195 138.11352539 -37.02825195 138.11352539 -37.70825195 138.11352539 C-40.70825195 133.72891001 -40.70825195 133.72891001 -40.70825195 131.11352539 C-41.36825195 131.11352539 -42.02825195 131.11352539 -42.70825195 131.11352539 C-43.03825195 129.46352539 -43.36825195 127.81352539 -43.70825195 126.11352539 C-44.36825195 126.11352539 -45.02825195 126.11352539 -45.70825195 126.11352539 C-47.4104694 123.74768121 -48.94734829 121.40954441 -50.45825195 118.92602539 C-50.89524414 118.25249023 -51.33223633 117.57895508 -51.7824707 116.88500977 C-54.85414729 111.85550737 -54.85414729 111.85550737 -54.16137695 108.33227539 C-52.79798831 106.25054219 -51.49430749 104.52903413 -49.70825195 102.80102539 C-49.19262695 102.28926758 -48.67700195 101.77750977 -48.14575195 101.25024414 C-46.70825195 100.11352539 -46.70825195 100.11352539 -44.70825195 100.11352539 C-44.04825195 98.46352539 -43.38825195 96.81352539 -42.70825195 95.11352539 C-42.04825195 95.11352539 -41.38825195 95.11352539 -40.70825195 95.11352539 C-40.49040039 94.57727539 -40.27254883 94.04102539 -40.0480957 93.48852539 C-38.2361567 90.27669182 -35.79408134 87.76901405 -33.27075195 85.11352539 C-32.19085942 83.96422297 -31.11144392 82.81447216 -30.0324707 81.66430664 C-29.48252441 81.07987793 -28.93257812 80.49544922 -28.3659668 79.89331055 C-26.736925 78.14430985 -25.13451899 76.37473108 -23.5402832 74.59399414 C-23.04262451 74.0403418 -22.54496582 73.48668945 -22.03222656 72.91625977 C-21.07990009 71.85466045 -20.13136762 70.78964309 -19.18701172 69.72094727 C-18.06780765 68.48079932 -16.89265648 67.29156215 -15.70825195 66.11352539 C-15.04825195 66.11352539 -14.38825195 66.11352539 -13.70825195 66.11352539 C-13.04825195 64.46352539 -12.38825195 62.81352539 -11.70825195 61.11352539 C-11.04825195 61.11352539 -10.38825195 61.11352539 -9.70825195 61.11352539 C-9.37825195 60.12352539 -9.04825195 59.13352539 -8.70825195 58.11352539 C-8.04825195 58.11352539 -7.38825195 58.11352539 -6.70825195 58.11352539 C-6.37825195 57.12352539 -6.04825195 56.13352539 -5.70825195 55.11352539 C-5.04825195 55.11352539 -4.38825195 55.11352539 -3.70825195 55.11352539 C-3.70825195 54.45352539 -3.70825195 53.79352539 -3.70825195 53.11352539 C-3.04825195 53.11352539 -2.38825195 53.11352539 -1.70825195 53.11352539 C-1.48137695 52.59790039 -1.25450195 52.08227539 -1.02075195 51.55102539 C2.03557733 45.8749853 5.61143734 41.59059779 10.59643555 37.51196289 C14.1173637 34.6076028 17.12949178 31.34868115 19.97924805 27.80102539 C21.12393555 26.47071289 21.12393555 26.47071289 22.29174805 25.11352539 C22.95174805 25.11352539 23.61174805 25.11352539 24.29174805 25.11352539 C24.55987305 24.51540039 24.82799805 23.91727539 25.10424805 23.30102539 C26.29092211 21.11504685 27.38773917 19.70019945 29.29174805 18.11352539 C29.95174805 18.11352539 30.61174805 18.11352539 31.29174805 18.11352539 C31.55987305 17.53602539 31.82799805 16.95852539 32.10424805 16.36352539 C33.32103994 14.05802497 34.59508684 12.09296347 36.29174805 10.11352539 C36.95174805 10.11352539 37.61174805 10.11352539 38.29174805 10.11352539 C38.62174805 9.12352539 38.95174805 8.13352539 39.29174805 7.11352539 C39.95174805 7.11352539 40.61174805 7.11352539 41.29174805 7.11352539 C41.62174805 5.46352539 41.95174805 3.81352539 42.29174805 2.11352539 C36.83274706 2.18313294 31.37445963 2.27143793 25.91601562 2.37597656 C24.06486022 2.40892671 22.21361154 2.43704832 20.36230469 2.45996094 C1.83651398 2.60352719 1.83651398 2.60352719 -15.70825195 8.11352539 C-16.03825195 9.10352539 -16.36825195 10.09352539 -16.70825195 11.11352539 C-17.36825195 11.11352539 -18.02825195 11.11352539 -18.70825195 11.11352539 C-18.70825195 11.77352539 -18.70825195 12.43352539 -18.70825195 13.11352539 C-20.08325195 14.73852539 -20.08325195 14.73852539 -21.70825195 16.11352539 C-22.36825195 16.11352539 -23.02825195 16.11352539 -23.70825195 16.11352539 C-24.20325195 17.59852539 -24.20325195 17.59852539 -24.70825195 19.11352539 C-25.36825195 19.11352539 -26.02825195 19.11352539 -26.70825195 19.11352539 C-26.87325195 19.79415039 -27.03825195 20.47477539 -27.20825195 21.17602539 C-29.05069841 24.78414971 -31.38331408 26.51749999 -34.47387695 29.06665039 C-37.77827339 32.09375482 -40.36604715 35.59237116 -43.04418945 39.17211914 C-43.59333008 39.8127832 -44.1424707 40.45344727 -44.70825195 41.11352539 C-45.36825195 41.11352539 -46.02825195 41.11352539 -46.70825195 41.11352539 C-46.79075195 41.71165039 -46.87325195 42.30977539 -46.95825195 42.92602539 C-47.92555315 45.74732054 -49.33323552 46.36718978 -51.70825195 48.11352539 C-52.10270508 48.83668945 -52.4971582 49.55985352 -52.90356445 50.30493164 C-55.74057882 54.72011201 -59.70381855 57.84321638 -63.61450195 61.29711914 C-67.03073339 64.37317499 -69.38526881 67.10637947 -71.70825195 71.11352539 C-73.19325195 71.60852539 -73.19325195 71.60852539 -74.70825195 72.11352539 C-74.70825195 72.77352539 -74.70825195 73.43352539 -74.70825195 74.11352539 C-77.18325195 74.60852539 -77.18325195 74.60852539 -79.70825195 75.11352539 C-82.70825195 71.36352539 -82.70825195 71.36352539 -82.70825195 69.11352539 C-81.38825195 69.11352539 -80.06825195 69.11352539 -78.70825195 69.11352539 C-78.70825195 69.77352539 -78.70825195 70.43352539 -78.70825195 71.11352539 C-78.25450195 70.61852539 -77.80075195 70.12352539 -77.33325195 69.61352539 C-75.70825195 68.11352539 -75.70825195 68.11352539 -73.70825195 68.11352539 C-73.61543945 67.27821289 -73.61543945 67.27821289 -73.52075195 66.42602539 C-72.36017505 63.12284497 -70.3061175 61.39457806 -67.70825195 59.11352539 C-67.04825195 59.11352539 -66.38825195 59.11352539 -65.70825195 59.11352539 C-65.37825195 58.12352539 -65.04825195 57.13352539 -64.70825195 56.11352539 C-64.04825195 56.11352539 -63.38825195 56.11352539 -62.70825195 56.11352539 C-62.37825195 55.12352539 -62.04825195 54.13352539 -61.70825195 53.11352539 C-61.04825195 53.11352539 -60.38825195 53.11352539 -59.70825195 53.11352539 C-59.48137695 52.41227539 -59.25450195 51.71102539 -59.02075195 50.98852539 C-57.36983908 47.37224004 -55.41736845 45.02582563 -52.70825195 42.11352539 C-52.04825195 42.11352539 -51.38825195 42.11352539 -50.70825195 42.11352539 C-50.70825195 41.45352539 -50.70825195 40.79352539 -50.70825195 40.11352539 C-49.05822367 38.75965603 -47.39081325 37.42674397 -45.70825195 36.11352539 C-45.21325195 35.12352539 -45.21325195 35.12352539 -44.70825195 34.11352539 C-44.04825195 34.11352539 -43.38825195 34.11352539 -42.70825195 34.11352539 C-42.37825195 33.12352539 -42.04825195 32.13352539 -41.70825195 31.11352539 C-41.04825195 31.11352539 -40.38825195 31.11352539 -39.70825195 31.11352539 C-39.39887695 30.49477539 -39.08950195 29.87602539 -38.77075195 29.23852539 C-38.08325195 27.86352539 -37.39575195 26.48852539 -36.70825195 25.11352539 C-36.04825195 25.11352539 -35.38825195 25.11352539 -34.70825195 25.11352539 C-34.21325195 23.62852539 -34.21325195 23.62852539 -33.70825195 22.11352539 C-33.04825195 22.11352539 -32.38825195 22.11352539 -31.70825195 22.11352539 C-31.21325195 20.62852539 -31.21325195 20.62852539 -30.70825195 19.11352539 C-30.04825195 19.11352539 -29.38825195 19.11352539 -28.70825195 19.11352539 C-28.61543945 18.24727539 -28.61543945 18.24727539 -28.52075195 17.36352539 C-27.38092645 14.20708553 -25.37230567 13.07985075 -22.70825195 11.11352539 C-22.15137695 10.53602539 -21.59450195 9.95852539 -21.02075195 9.36352539 C-19.70825195 8.11352539 -19.70825195 8.11352539 -17.70825195 8.11352539 C-17.37825195 7.12352539 -17.04825195 6.13352539 -16.70825195 5.11352539 C-15.71825195 5.11352539 -14.72825195 5.11352539 -13.70825195 5.11352539 C-13.70825195 4.45352539 -13.70825195 3.79352539 -13.70825195 3.11352539 C-12.71825195 3.11352539 -11.72825195 3.11352539 -10.70825195 3.11352539 C-10.70825195 2.45352539 -10.70825195 1.79352539 -10.70825195 1.11352539 C-7.07348895 0.27759641 -3.72634415 -0.00841161 0 0 Z " fill="#029EF7" transform="translate(1062.708251953125,405.886474609375)"/>
<path d="M0 0 C0.66 0 1.32 0 2 0 C1.34 2.31 0.68 4.62 0 7 C-0.66 7 -1.32 7 -2 7 C-2.33 7.99 -2.66 8.98 -3 10 C-3.66 10 -4.32 10 -5 10 C-5.33 10.99 -5.66 11.98 -6 13 C-6.66 13 -7.32 13 -8 13 C-8 13.66 -8 14.32 -8 15 C-8.66 15 -9.32 15 -10 15 C-10.33 16.32 -10.66 17.64 -11 19 C-11.66 19 -12.32 19 -13 19 C-13.061875 19.5775 -13.12375 20.155 -13.1875 20.75 C-14.32438533 23.89829784 -16.36907229 24.98091594 -19 27 C-19.721875 27.9075 -20.44375 28.815 -21.1875 29.75 C-21.785625 30.4925 -22.38375 31.235 -23 32 C-23.66 32 -24.32 32 -25 32 C-25 32.66 -25 33.32 -25 34 C-26.375 35.625 -26.375 35.625 -28 37 C-28.66 37 -29.32 37 -30 37 C-30.33 38.32 -30.66 39.64 -31 41 C-31.66 41 -32.32 41 -33 41 C-33.33 41.99 -33.66 42.98 -34 44 C-34.66 44 -35.32 44 -36 44 C-36.33 44.99 -36.66 45.98 -37 47 C-37.66 47 -38.32 47 -39 47 C-39 47.66 -39 48.32 -39 49 C-39.66 49 -40.32 49 -41 49 C-41.33 49.99 -41.66 50.98 -42 52 C-42.66 52 -43.32 52 -44 52 C-44.33 52.99 -44.66 53.98 -45 55 C-45.66 55 -46.32 55 -47 55 C-47.33 55.99 -47.66 56.98 -48 58 C-48.66 58 -49.32 58 -50 58 C-50.33 58.99 -50.66 59.98 -51 61 C-51.66 61 -52.32 61 -53 61 C-53.4640625 61.928125 -53.4640625 61.928125 -53.9375 62.875 C-54.625 64.25 -55.3125 65.625 -56 67 C-56.66 67 -57.32 67 -58 67 C-58.0928125 67.86625 -58.0928125 67.86625 -58.1875 68.75 C-59.32438533 71.89829784 -61.36907229 72.98091594 -64 75 C-64.721875 75.9075 -65.44375 76.815 -66.1875 77.75 C-66.785625 78.4925 -67.38375 79.235 -68 80 C-68.66 80 -69.32 80 -70 80 C-70.495 81.485 -70.495 81.485 -71 83 C-71.66 83 -72.32 83 -73 83 C-73 83.66 -73 84.32 -73 85 C-73.7425 85.5775 -74.485 86.155 -75.25 86.75 C-78.2404905 89.19676496 -79.88824441 91.79595703 -82 95 C-82.66 95 -83.32 95 -84 95 C-84 95.66 -84 96.32 -84 97 C-85.375 98.625 -85.375 98.625 -87 100 C-87.66 100 -88.32 100 -89 100 C-89 100.66 -89 101.32 -89 102 C-90.485 102.495 -90.485 102.495 -92 103 C-92.61875 103.825 -93.2375 104.65 -93.875 105.5 C-96.27135597 108.31924232 -97.3967764 108.69973137 -101 109 C-101 109.66 -101 110.32 -101 111 C-102.92057292 111.71614583 -104.84114583 112.43229167 -106.76171875 113.1484375 C-108.29678881 113.73246067 -109.81374966 114.36573537 -111.31181335 115.03903198 C-114.1589878 116.05683467 -116.23823284 116.24199388 -119.24926758 116.22705078 C-120.26994827 116.22689972 -121.29062897 116.22674866 -122.34223938 116.22659302 C-123.97687386 116.21110916 -123.97687386 116.21110916 -125.64453125 116.1953125 C-126.7694548 116.1924826 -127.89437836 116.18965271 -129.0533905 116.18673706 C-132.63986936 116.17555836 -136.22609685 116.15045763 -139.8125 116.125 C-142.24674118 116.11496723 -144.68098628 116.1058419 -147.11523438 116.09765625 C-153.07690842 116.07562656 -159.03843625 116.04217174 -165 116 C-165.33 115.01 -165.66 114.02 -166 113 C-165.34 113 -164.68 113 -164 113 C-163.67 112.01 -163.34 111.02 -163 110 C-162.34 110 -161.68 110 -161 110 C-160.9175 109.4225 -160.835 108.845 -160.75 108.25 C-159.78005089 105.34015266 -158.22228899 104.09530105 -156 102 C-154.66172696 100.33729713 -153.32810215 98.67083819 -152 97 C-150.375 95.1875 -150.375 95.1875 -149 94 C-148.34 94 -147.68 94 -147 94 C-146.505 92.515 -146.505 92.515 -146 91 C-145.34 91 -144.68 91 -144 91 C-143.505 89.515 -143.505 89.515 -143 88 C-142.34 88 -141.68 88 -141 88 C-140.505 86.515 -140.505 86.515 -140 85 C-139.34 85 -138.68 85 -138 85 C-138 84.34 -138 83.68 -138 83 C-136.625 81.375 -136.625 81.375 -135 80 C-134.34 80 -133.68 80 -133 80 C-132.505 78.515 -132.505 78.515 -132 77 C-131.34 77 -130.68 77 -130 77 C-129.938125 76.443125 -129.87625 75.88625 -129.8125 75.3125 C-128.63366502 71.95735428 -126.69790286 70.25870937 -124 68 C-122.68 68 -121.36 68 -120 68 C-120.46227866 72.57496469 -121.88187082 74.22691491 -125.375 77.125 C-132.51992175 83.26676655 -139.43001258 89.73034885 -145.375 97.0625 C-147.9954049 99.99485786 -149.44590911 100.6799091 -153 102 C-153.61067144 103.85744207 -153.61067144 103.85744207 -154 106 C-155.28062485 107.7074998 -156.6072711 109.38263741 -158 111 C-153.38193819 111.90325109 -148.9127563 112.14655613 -144.22265625 112.1328125 C-143.12829506 112.13424759 -143.12829506 112.13424759 -142.01182556 112.13571167 C-140.47638868 112.13638889 -138.94094887 112.1345667 -137.40551758 112.13037109 C-135.07301303 112.1250241 -132.74070169 112.13032767 -130.40820312 112.13671875 C-128.90885375 112.13605774 -127.40950449 112.13477609 -125.91015625 112.1328125 C-124.87702049 112.13584885 -124.87702049 112.13584885 -123.82301331 112.13894653 C-115.12205978 112.15961149 -115.12205978 112.15961149 -107.25 108.9375 C-104 107 -104 107 -101 107 C-101 106.34 -101 105.68 -101 105 C-99.64298081 104.09532054 -98.28193902 103.19634089 -96.90625 102.3203125 C-89.36516114 97.09718128 -83.23326722 90.27754799 -77.52734375 83.1640625 C-76.38651539 81.74717364 -75.19787461 80.36899956 -74 79 C-73.34 79 -72.68 79 -72 79 C-71.505 77.515 -71.505 77.515 -71 76 C-70.34 76 -69.68 76 -69 76 C-68.505 74.515 -68.505 74.515 -68 73 C-67.34 73 -66.68 73 -66 73 C-65.505 71.515 -65.505 71.515 -65 70 C-64.34 70 -63.68 70 -63 70 C-62.7421875 69.42765625 -62.484375 68.8553125 -62.21875 68.265625 C-60.88634058 65.78871005 -59.34943882 63.8658834 -57.5 61.75 C-56.8915625 61.04359375 -56.283125 60.3371875 -55.65625 59.609375 C-54 58 -54 58 -52 58 C-51.76023437 57.43152344 -51.52046875 56.86304688 -51.2734375 56.27734375 C-49.74154841 53.53779977 -47.88906571 51.73254305 -45.625 49.5625 C-43.07881919 47.08579764 -40.77871148 44.72197083 -38.5625 41.9375 C-38.046875 41.298125 -37.53125 40.65875 -37 40 C-36.34 40 -35.68 40 -35 40 C-34.67 39.01 -34.34 38.02 -34 37 C-33.34 37 -32.68 37 -32 37 C-31.7525 36.443125 -31.505 35.88625 -31.25 35.3125 C-28.64827025 30.49929997 -25.26447031 27.34242267 -21 24 C-20.67 23.34 -20.34 22.68 -20 22 C-19.34 22 -18.68 22 -18 22 C-17.79117188 21.47277344 -17.58234375 20.94554687 -17.3671875 20.40234375 C-15.42927353 16.99715205 -12.81805324 14.38794554 -10.125 11.5625 C-9.06350568 10.44031196 -8.00358087 9.31663701 -6.9453125 8.19140625 C-6.44032227 7.65531738 -5.93533203 7.11922852 -5.41503906 6.56689453 C-4.12131005 5.13432848 -2.92542142 3.61494629 -1.7421875 2.08984375 C-0.87980469 1.05537109 -0.87980469 1.05537109 0 0 Z " fill="#05A8FB" transform="translate(975,552)"/>
<path d="M0 0 C0.9524913 -0.00570007 1.9049826 -0.01140015 2.88633728 -0.01727295 C4.89076643 -0.02667777 6.89521073 -0.03323885 8.8996582 -0.03710938 C11.95876849 -0.04685564 15.01721772 -0.07793814 18.07617188 -0.109375 C20.02994396 -0.11590229 21.9837208 -0.12115384 23.9375 -0.125 C24.8470192 -0.1373468 25.75653839 -0.1496936 26.69361877 -0.16241455 C31.87635263 -0.14428364 35.37346473 0.38449433 39.90234375 3.203125 C39.90234375 3.863125 39.90234375 4.523125 39.90234375 5.203125 C42.37734375 5.698125 42.37734375 5.698125 44.90234375 6.203125 C44.90234375 6.863125 44.90234375 7.523125 44.90234375 8.203125 C45.89234375 8.533125 46.88234375 8.863125 47.90234375 9.203125 C47.90234375 9.863125 47.90234375 10.523125 47.90234375 11.203125 C48.56234375 11.203125 49.22234375 11.203125 49.90234375 11.203125 C50.39734375 12.688125 50.39734375 12.688125 50.90234375 14.203125 C51.41796875 14.698125 51.93359375 15.193125 52.46484375 15.703125 C53.90234375 17.203125 53.90234375 17.203125 53.90234375 20.203125 C54.56234375 20.203125 55.22234375 20.203125 55.90234375 20.203125 C55.90234375 20.863125 55.90234375 21.523125 55.90234375 22.203125 C56.56234375 22.203125 57.22234375 22.203125 57.90234375 22.203125 C58.39734375 23.688125 58.39734375 23.688125 58.90234375 25.203125 C59.56234375 25.533125 60.22234375 25.863125 60.90234375 26.203125 C61.52734375 28.765625 61.52734375 28.765625 61.90234375 31.203125 C62.56234375 31.203125 63.22234375 31.203125 63.90234375 31.203125 C64.39734375 33.678125 64.39734375 33.678125 64.90234375 36.203125 C66.38734375 36.698125 66.38734375 36.698125 67.90234375 37.203125 C67.90234375 38.193125 67.90234375 39.183125 67.90234375 40.203125 C68.56234375 40.203125 69.22234375 40.203125 69.90234375 40.203125 C69.98484375 40.986875 70.06734375 41.770625 70.15234375 42.578125 C70.61083776 45.3477868 70.61083776 45.3477868 72.90234375 46.328125 C73.89234375 46.76125 73.89234375 46.76125 74.90234375 47.203125 C75.23234375 48.193125 75.56234375 49.183125 75.90234375 50.203125 C76.41796875 50.698125 76.93359375 51.193125 77.46484375 51.703125 C78.90234375 53.203125 78.90234375 53.203125 78.90234375 56.203125 C80.38734375 56.698125 80.38734375 56.698125 81.90234375 57.203125 C81.90234375 58.193125 81.90234375 59.183125 81.90234375 60.203125 C82.56234375 60.203125 83.22234375 60.203125 83.90234375 60.203125 C85.58984375 62.515625 85.58984375 62.515625 86.90234375 65.203125 C86.40734375 66.688125 86.40734375 66.688125 85.90234375 68.203125 C84.41734375 67.708125 84.41734375 67.708125 82.90234375 67.203125 C82.90234375 66.213125 82.90234375 65.223125 82.90234375 64.203125 C81.41734375 63.708125 81.41734375 63.708125 79.90234375 63.203125 C78.83594731 61.57813995 77.85524032 59.89716334 76.90234375 58.203125 C75.89347662 56.63287213 74.87167454 55.07088452 73.83984375 53.515625 C73.33324219 52.74863281 72.82664062 51.98164063 72.3046875 51.19140625 C70.91738134 49.10463788 70.91738134 49.10463788 68.90234375 47.203125 C68.90234375 46.213125 68.90234375 45.223125 68.90234375 44.203125 C68.24234375 44.203125 67.58234375 44.203125 66.90234375 44.203125 C65.60546875 42.26171875 65.60546875 42.26171875 64.15234375 39.640625 C61.83592089 35.62925858 59.36401473 32.27538736 56.2734375 28.84765625 C54.48911992 26.70749186 53.22453619 24.42219145 51.9140625 21.97265625 C50.78668995 20.00084249 49.50197076 18.21659095 48.15234375 16.390625 C45.90234375 13.203125 45.90234375 13.203125 45.90234375 11.203125 C45.38671875 10.955625 44.87109375 10.708125 44.33984375 10.453125 C41.90234375 9.203125 41.90234375 9.203125 38.92163086 7.16308594 C34.16847508 4.4527214 29.51533068 4.60053756 24.15625 4.59375 C22.63957985 4.56894562 22.63957985 4.56894562 21.0922699 4.54364014 C17.88306516 4.49530327 14.67433384 4.47382052 11.46484375 4.453125 C9.28057533 4.42495343 7.09632882 4.39502434 4.91210938 4.36328125 C-0.42439363 4.28954843 -5.76076429 4.23782215 -11.09765625 4.203125 C-10.76765625 6.183125 -10.43765625 8.163125 -10.09765625 10.203125 C-9.43765625 10.203125 -8.77765625 10.203125 -8.09765625 10.203125 C-6.58984375 12.171875 -6.58984375 12.171875 -4.97265625 14.703125 C-4.16441406 15.95609375 -4.16441406 15.95609375 -3.33984375 17.234375 C-2.92992187 17.8840625 -2.52 18.53375 -2.09765625 19.203125 C-3.74765625 19.533125 -5.39765625 19.863125 -7.09765625 20.203125 C-7.09765625 19.213125 -7.09765625 18.223125 -7.09765625 17.203125 C-7.75765625 17.203125 -8.41765625 17.203125 -9.09765625 17.203125 C-9.09765625 16.543125 -9.09765625 15.883125 -9.09765625 15.203125 C-9.75765625 15.203125 -10.41765625 15.203125 -11.09765625 15.203125 C-11.42765625 14.213125 -11.75765625 13.223125 -12.09765625 12.203125 C-12.75765625 11.873125 -13.41765625 11.543125 -14.09765625 11.203125 C-14.72265625 8.640625 -14.72265625 8.640625 -15.09765625 6.203125 C-15.75765625 6.203125 -16.41765625 6.203125 -17.09765625 6.203125 C-17.66015625 4.265625 -17.66015625 4.265625 -18.09765625 2.203125 C-14.59240277 -1.30212848 -4.62492847 0.02165894 0 0 Z " fill="#039FF7" transform="translate(894.09765625,405.796875)"/>
<path d="M0 0 C-0.46227866 4.57496469 -1.88187082 6.22691491 -5.375 9.125 C-12.51992175 15.26676655 -19.43001258 21.73034885 -25.375 29.0625 C-27.9954049 31.99485786 -29.44590911 32.6799091 -33 34 C-33.61067144 35.85744207 -33.61067144 35.85744207 -34 38 C-35.28062485 39.7074998 -36.6072711 41.38263741 -38 43 C-33.15667095 43.96799592 -28.45861984 44.13122086 -23.5390625 44.09765625 C-22.74849457 44.0962413 -21.95792664 44.09482635 -21.1434021 44.09336853 C-18.63722834 44.08780504 -16.13114642 44.07525944 -13.625 44.0625 C-11.91797005 44.05748028 -10.21093868 44.0529182 -8.50390625 44.04882812 C-4.33590252 44.03784759 -0.16796679 44.02060839 4 44 C3.505 44.99 3.505 44.99 3 46 C2.03586182 46.02505615 1.07172363 46.0501123 0.07836914 46.07592773 C-3.48687842 46.16985306 -7.05192433 46.27010939 -10.61694336 46.37231445 C-12.16214289 46.41571985 -13.70739214 46.45739071 -15.25268555 46.49731445 C-17.46939096 46.55488199 -19.6858448 46.61861424 -21.90234375 46.68359375 C-22.5971434 46.70030624 -23.29194305 46.71701874 -24.00779724 46.73423767 C-27.28762029 46.56502856 -27.28762029 46.56502856 -30 48 C-32.53049402 48.07313567 -35.03304837 48.09247527 -37.5625 48.0625 C-38.62887695 48.05573242 -38.62887695 48.05573242 -39.71679688 48.04882812 C-41.47790013 48.03700864 -43.23896036 48.01907263 -45 48 C-45.495 46.515 -45.495 46.515 -46 45 C-45.34 45 -44.68 45 -44 45 C-43.67 44.01 -43.34 43.02 -43 42 C-42.34 42 -41.68 42 -41 42 C-40.9175 41.4225 -40.835 40.845 -40.75 40.25 C-39.78005089 37.34015266 -38.22228899 36.09530105 -36 34 C-34.66172696 32.33729713 -33.32810215 30.67083819 -32 29 C-30.375 27.1875 -30.375 27.1875 -29 26 C-28.34 26 -27.68 26 -27 26 C-26.67 25.01 -26.34 24.02 -26 23 C-25.34 23 -24.68 23 -24 23 C-23.67 22.01 -23.34 21.02 -23 20 C-22.34 20 -21.68 20 -21 20 C-20.67 19.01 -20.34 18.02 -20 17 C-19.34 17 -18.68 17 -18 17 C-18 16.34 -18 15.68 -18 15 C-16.625 13.375 -16.625 13.375 -15 12 C-14.34 12 -13.68 12 -13 12 C-12.67 11.01 -12.34 10.02 -12 9 C-11.34 9 -10.68 9 -10 9 C-9.9071875 8.1646875 -9.9071875 8.1646875 -9.8125 7.3125 C-8.04510305 2.28221638 -5.23229219 0 0 0 Z " fill="#019DF4" transform="translate(855,620)"/>
<path d="M0 0 C3.75376152 1.25125384 4.24073289 2.5652404 6 6 C6 6.66 6 7.32 6 8 C6.66 8 7.32 8 8 8 C11 11.46153846 11 11.46153846 11 14 C11.66 14 12.32 14 13 14 C13.33 15.65 13.66 17.3 14 19 C14.66 19 15.32 19 16 19 C17.3671875 20.9765625 17.3671875 20.9765625 18.875 23.625 C20.62576712 26.6545137 22.37499281 29.6285611 24.375 32.5 C26 35 26 35 26 37 C26.66 37 27.32 37 28 37 C31 41.38461538 31 41.38461538 31 44 C31.66 44 32.32 44 33 44 C33.495 45.98 33.495 45.98 34 48 C34.66 48 35.32 48 36 48 C36.495 50.475 36.495 50.475 37 53 C37.66 53 38.32 53 39 53 C43 58.29411765 43 58.29411765 43 62 C43.66 62 44.32 62 45 62 C45 62.66 45 63.32 45 64 C43.02 64.495 43.02 64.495 41 65 C41 64.01 41 63.02 41 62 C40.34 62 39.68 62 39 62 C38.67 60.35 38.34 58.7 38 57 C37.34 57 36.68 57 36 57 C32 51.58823529 32 51.58823529 32 49 C31.34 49 30.68 49 30 49 C27.95830515 46.09451118 27 44.59857954 27 41 C25.515 40.505 25.515 40.505 24 40 C24 39.01 24 38.02 24 37 C23.34 37 22.68 37 22 37 C18 31.58823529 18 31.58823529 18 29 C17.34 29 16.68 29 16 29 C15.505 26.525 15.505 26.525 15 24 C14.34 24 13.68 24 13 24 C12.67 23.01 12.34 22.02 12 21 C11.34 20.67 10.68 20.34 10 20 C10 19.01 10 18.02 10 17 C9.34 17 8.68 17 8 17 C7.67 15.35 7.34 13.7 7 12 C6.01 11.67 5.02 11.34 4 11 C1 6.66666667 1 6.66666667 1 4 C0.34 4 -0.32 4 -1 4 C-0.67 2.68 -0.34 1.36 0 0 Z " fill="#019EF6" transform="translate(906,448)"/>
<path d="M0 0 C0.66 0.33 1.32 0.66 2 1 C1.30132813 1.75925781 0.60265625 2.51851562 -0.1171875 3.30078125 C-1.03656422 4.30459053 -1.95582921 5.30850215 -2.875 6.3125 C-3.33519531 6.81201172 -3.79539062 7.31152344 -4.26953125 7.82617188 C-6.38606608 10.14209043 -8.25526383 12.38289574 -10 15 C-10.66 15 -11.32 15 -12 15 C-12.26482178 15.58773193 -12.52964355 16.17546387 -12.80249023 16.78100586 C-14.03972651 19.0736135 -15.35313177 20.63663896 -17.16015625 22.50390625 C-17.78494873 23.15738037 -18.40974121 23.81085449 -19.0534668 24.48413086 C-19.71644775 25.16999268 -20.37942871 25.85585449 -21.0625 26.5625 C-26.43865928 32.18241785 -31.47621926 37.84919749 -36.16796875 44.05859375 C-38.1352249 46.14329802 -39.19589477 46.65803595 -42 47 C-41.51126356 42.60137205 -40.22179093 40.94563742 -37 38 C-35.948125 36.63875 -35.948125 36.63875 -34.875 35.25 C-33.946875 34.13625 -33.946875 34.13625 -33 33 C-32.34 33 -31.68 33 -31 33 C-30.67 32.01 -30.34 31.02 -30 30 C-29.34 30 -28.68 30 -28 30 C-27.67 29.01 -27.34 28.02 -27 27 C-26.34 27 -25.68 27 -25 27 C-24.67 26.01 -24.34 25.02 -24 24 C-23.34 24 -22.68 24 -22 24 C-21.938125 23.46375 -21.87625 22.9275 -21.8125 22.375 C-19.92734567 16.86454888 -15.4031476 13.49993784 -11 10 C-10.278125 9.0925 -9.55625 8.185 -8.8125 7.25 C-8.214375 6.5075 -7.61625 5.765 -7 5 C-6.34 5 -5.68 5 -5 5 C-5 4.01 -5 3.02 -5 2 C-2.625 0.9375 -2.625 0.9375 0 0 Z " fill="#03A0F5" transform="translate(949,517)"/>
<path d="M0 0 C0.99 0.66 1.98 1.32 3 2 C3 2.99 3 3.98 3 5 C3.66 5 4.32 5 5 5 C6.62109375 7.23046875 6.62109375 7.23046875 8.4375 10.1875 C9.03433594 11.15042969 9.63117187 12.11335938 10.24609375 13.10546875 C11.83802234 15.73268275 13.42378339 18.36333184 15 21 C13.35 21 11.7 21 10 21 C9.67 19.68 9.34 18.36 9 17 C8.34 17 7.68 17 7 17 C5.4921875 15.1015625 5.4921875 15.1015625 3.875 12.625 C3.33617187 11.81289063 2.79734375 11.00078125 2.2421875 10.1640625 C1 8 1 8 1 6 C0.34 6 -0.32 6 -1 6 C-1.625 4.125 -1.625 4.125 -2 2 C-1.34 1.34 -0.68 0.68 0 0 Z " fill="#029EF3" transform="translate(892,426)"/>
<path d="M0 0 C-1.42246395 3.69840628 -3.80988455 5.85632808 -6.6015625 8.5390625 C-8.19613266 10.20489837 -9.17270218 11.84902568 -10 14 C-10.66 14 -11.32 14 -12 14 C-12.33 14.99 -12.66 15.98 -13 17 C-13.66 17 -14.32 17 -15 17 C-15.75 15.25 -15.75 15.25 -16 13 C-14.3125 11.0625 -14.3125 11.0625 -12 9 C-11.0409375 7.7625 -11.0409375 7.7625 -10.0625 6.5 C-4.7 0 -4.7 0 0 0 Z " fill="#069EF2" transform="translate(893,580)"/>
<path d="M0 0 C-1.09222425 7.64556973 -5.21842863 11.39058282 -11 16 C-11.66 14.68 -12.32 13.36 -13 12 C-12.01 11.67 -11.02 11.34 -10 11 C-10 10.01 -10 9.02 -10 8 C-9.34 8 -8.68 8 -8 8 C-7.67 7.01 -7.34 6.02 -7 5 C-6.34 5 -5.68 5 -5 5 C-4.87625 4.360625 -4.7525 3.72125 -4.625 3.0625 C-4.41875 2.381875 -4.2125 1.70125 -4 1 C-2 0 -2 0 0 0 Z " fill="#0094E9" transform="translate(906,564)"/>
<path d="M0 0 C0.33 0.66 0.66 1.32 1 2 C0.67 2.66 0.34 3.32 0 4 C0.66 4.33 1.32 4.66 2 5 C1.34 5 0.68 5 0 5 C-0.33 5.99 -0.66 6.98 -1 8 C-1.66 8 -2.32 8 -3 8 C-3.226875 8.61875 -3.45375 9.2375 -3.6875 9.875 C-5.41251935 12.66788847 -6.93971766 12.93245965 -10 14 C-11.6829392 14.97236487 -13.35443434 15.96564444 -15 17 C-15 16.34 -15 15.68 -15 15 C-13.64453125 13.66796875 -13.64453125 13.66796875 -11.8125 12.1875 C-7.37865788 8.50606746 -3.33094241 4.73344448 0 0 Z " fill="#029AF2" transform="translate(1083,433)"/>
<path d="M0 0 C0.33 0.66 0.66 1.32 1 2 C2.65 1.34 4.3 0.68 6 0 C4.57390841 3.36202939 2.85651485 5.23675579 0.0625 7.5625 C-2.39732014 9.6269098 -4.76368922 11.69358543 -7 14 C-7.66 13.01 -8.32 12.02 -9 11 C-8.34 11 -7.68 11 -7 11 C-6.6596875 9.948125 -6.6596875 9.948125 -6.3125 8.875 C-4.68343133 5.30656387 -2.59359269 2.93485489 0 0 Z " fill="#018FF6" transform="translate(1010,448)"/>
<path d="M0 0 C1.32 0.66 2.64 1.32 4 2 C4 2.99 4 3.98 4 5 C4.66 5 5.32 5 6 5 C10 11.75 10 11.75 10 14 C6.74488211 13.43877278 5.00159929 12.66879905 3 10 C2.3125 7.3125 2.3125 7.3125 2 5 C1.34 5 0.68 5 0 5 C-0.5625 3.0625 -0.5625 3.0625 -1 1 C-0.67 0.67 -0.34 0.34 0 0 Z " fill="#029FF7" transform="translate(981,557)"/>
<path d="M0 0 C0.99 0.33 1.98 0.66 3 1 C3 1.99 3 2.98 3 4 C3.66 4 4.32 4 5 4 C6.125 7.75 6.125 7.75 5 10 C3.02 10 1.04 10 -1 10 C-0.67 6.7 -0.34 3.4 0 0 Z " fill="#09B0FE" transform="translate(1069,608)"/>
<path d="M0 0 C0 0.66 0 1.32 0 2 C1.32 2.33 2.64 2.66 4 3 C2.98679687 3.19916016 2.98679687 3.19916016 1.953125 3.40234375 C0.61507812 3.66724609 0.61507812 3.66724609 -0.75 3.9375 C-1.63171875 4.11152344 -2.5134375 4.28554688 -3.421875 4.46484375 C-5.63235053 4.92368488 -7.81512068 5.43336074 -10 6 C-10.5625 4.0625 -10.5625 4.0625 -11 2 C-8.56079856 -0.43920144 -3.28707881 0 0 0 Z " fill="#06B4FE" transform="translate(887,406)"/>
<path d="M0 0 C2.33294775 -0.04241723 4.66702567 -0.04092937 7 0 C7.33 0.33 7.66 0.66 8 1 C9.41327947 1.15620555 10.8335459 1.25056173 12.25390625 1.31640625 C13.10791016 1.35830078 13.96191406 1.40019531 14.84179688 1.44335938 C15.73962891 1.48267578 16.63746094 1.52199219 17.5625 1.5625 C18.46419922 1.60568359 19.36589844 1.64886719 20.29492188 1.69335938 C22.52978485 1.79978142 24.76476308 1.90179988 27 2 C27 2.33 27 2.66 27 3 C23.2500163 3.02905924 19.50006163 3.04681874 15.75 3.0625 C14.15478516 3.07506836 14.15478516 3.07506836 12.52734375 3.08789062 C11.50253906 3.09111328 10.47773437 3.09433594 9.421875 3.09765625 C8.00793457 3.10551147 8.00793457 3.10551147 6.56542969 3.11352539 C4.21876563 3.00968082 2.24355522 2.66706529 0 2 C0 1.34 0 0.68 0 0 Z " fill="#01A7F9" transform="translate(887,406)"/>
<path d="M0 0 C3.34726719 1.11575573 3.62079748 1.51344622 5.25 4.4375 C5.8275 5.613125 6.405 6.78875 7 8 C6.67 8.66 6.34 9.32 6 10 C2.66282451 8.6190998 0.77698964 7.1798762 -1 4 C-0.6875 1.75 -0.6875 1.75 0 0 Z " fill="#02AAFC" transform="translate(926,477)"/>
<path d="M0 0 C0.66 0.66 1.32 1.32 2 2 C1.625 4.625 1.625 4.625 1 7 C0.34 7 -0.32 7 -1 7 C-1.33 7.99 -1.66 8.98 -2 10 C-2.66 10 -3.32 10 -4 10 C-4.75 8.25 -4.75 8.25 -5 6 C-3.125 3.875 -3.125 3.875 -1 2 C-0.67 1.34 -0.34 0.68 0 0 Z " fill="#0191F8" transform="translate(882,587)"/>
<path d="M0 0 C0.66 0 1.32 0 2 0 C1.34 1.65 0.68 3.3 0 5 C-0.66 5 -1.32 5 -2 5 C-2.33 5.99 -2.66 6.98 -3 8 C-3.66 8 -4.32 8 -5 8 C-5.33 8.99 -5.66 9.98 -6 11 C-6.66 11 -7.32 11 -8 11 C-7.34 9.35 -6.68 7.7 -6 6 C-5.34 6 -4.68 6 -4 6 C-3.67 5.01 -3.34 4.02 -3 3 C-2.34 3 -1.68 3 -1 3 C-0.67 2.01 -0.34 1.02 0 0 Z " fill="#026BD9" transform="translate(866,606)"/>
<path d="M0 0 C0.66 0.33 1.32 0.66 2 1 C1.01 2.485 1.01 2.485 0 4 C-0.66 4 -1.32 4 -2 4 C-2.33 4.99 -2.66 5.98 -3 7 C-3.66 7 -4.32 7 -5 7 C-5.33 7.99 -5.66 8.98 -6 10 C-6.66 10 -7.32 10 -8 10 C-8 10.66 -8 11.32 -8 12 C-8.66 11.67 -9.32 11.34 -10 11 C-7.00793014 6.55463907 -4.41309542 3.15221101 0 0 Z " fill="#07A9FD" transform="translate(1074,445)"/>
<path d="M0 0 C-0.30618405 3.67420866 -0.75771784 4.78135513 -3.5625 7.3125 C-4.366875 7.869375 -5.17125 8.42625 -6 9 C-6.33 8.34 -6.66 7.68 -7 7 C-4 0 -4 0 0 0 Z " fill="#059DF4" transform="translate(906,564)"/>
<path d="M0 0 C0 0.66 0 1.32 0 2 C-1.32 2.33 -2.64 2.66 -4 3 C-4.33 4.65 -4.66 6.3 -5 8 C-6.32 7.67 -7.64 7.34 -9 7 C-7.4576387 2.93377477 -4.5679954 0 0 0 Z " fill="#05A5FC" transform="translate(1031,494)"/>
<path d="M0 0 C0 0.66 0 1.32 0 2 C-1.65002828 3.35386936 -3.3174387 4.68678142 -5 6 C-5.33 6.66 -5.66 7.32 -6 8 C-6.66 8 -7.32 8 -8 8 C-8 7.34 -8 6.68 -8 6 C-8.66 5.67 -9.32 5.34 -10 5 C-9.01 4.67 -8.02 4.34 -7 4 C-6.67 3.01 -6.34 2.02 -6 1 C-3.90006779 0.25486277 -2.22568901 0 0 0 Z " fill="#0293F4" transform="translate(1060,463)"/>
<path d="M0 0 C0.99 0 1.98 0 3 0 C2.45773019 3.79588866 0.79872437 5.47211993 -2 8 C-2.66 7.01 -3.32 6.02 -4 5 C-3.34 5 -2.68 5 -2 5 C-1.34 3.35 -0.68 1.7 0 0 Z " fill="#02A1FC" transform="translate(1005,454)"/>
<path d="M0 0 C1.65 0 3.3 0 5 0 C3.68 2.31 2.36 4.62 1 7 C0.34 6.67 -0.32 6.34 -1 6 C-0.67 4.02 -0.34 2.04 0 0 Z " fill="#0696E8" transform="translate(871,600)"/>
<path d="M0 0 C1 3 1 3 0 6 C-1.32 6 -2.64 6 -4 6 C-2.84826645 3.53199953 -1.95216435 1.95216435 0 0 Z M-6 6 C-5.34 6.33 -4.68 6.66 -4 7 C-4.99 7 -5.98 7 -7 7 C-6.67 6.67 -6.34 6.34 -6 6 Z " fill="#03AAF9" transform="translate(916,616)"/>
<path d="M0 0 C0.99 0.33 1.98 0.66 3 1 C2.25 2.9375 2.25 2.9375 1 5 C-1.125 5.75 -1.125 5.75 -3 6 C-2.625 3.5625 -2.625 3.5625 -2 1 C-1.34 0.67 -0.68 0.34 0 0 Z " fill="#019CF4" transform="translate(910,558)"/>
<path d="M0 0 C1.5625 1.1875 1.5625 1.1875 3 3 C2.6875 5.6875 2.6875 5.6875 2 8 C-0.34058637 5.87219421 -1.70700306 3.88437779 -3 1 C-2.01 0.67 -1.02 0.34 0 0 Z " fill="#0195F6" transform="translate(1031,547)"/>
<path d="M0 0 C0.33 0.99 0.66 1.98 1 3 C-1.97 5.475 -1.97 5.475 -5 8 C-5.33 7.01 -5.66 6.02 -6 5 C-4.02 3.35 -2.04 1.7 0 0 Z " fill="#02A3FA" transform="translate(993,469)"/>
<path d="M0 0 C1.32 0.33 2.64 0.66 4 1 C3.67 1.99 3.34 2.98 3 4 C2.34 4 1.68 4 1 4 C0.67 4.66 0.34 5.32 0 6 C0 5.34 0 4.68 0 4 C-0.99 4.33 -1.98 4.66 -3 5 C-3 4.34 -3 3.68 -3 3 C-2.34 3 -1.68 3 -1 3 C-0.67 2.01 -0.34 1.02 0 0 Z M1 1 C2 3 2 3 2 3 Z " fill="#028CF9" transform="translate(941,589)"/>
<path d="M0 0 C-0.33 0.99 -0.66 1.98 -1 3 C-1.66 3 -2.32 3 -3 3 C-3 3.66 -3 4.32 -3 5 C-3.99 5 -4.98 5 -6 5 C-5.625 3.0625 -5.625 3.0625 -5 1 C-3 0 -3 0 0 0 Z " fill="#04ADF9" transform="translate(1089,432)"/>
<path d="M0 0 C-0.33 0.99 -0.66 1.98 -1 3 C-1.66 3 -2.32 3 -3 3 C-3 3.66 -3 4.32 -3 5 C-4.32 5.33 -5.64 5.66 -7 6 C-7 4 -7 4 -5.1875 1.875 C-3 0 -3 0 0 0 Z " fill="#0DBFFE" transform="translate(905,632)"/>
<path d="M0 0 C0.99 0.33 1.98 0.66 3 1 C3 2.65 3 4.3 3 6 C2.34 6 1.68 6 1 6 C1 5.34 1 4.68 1 4 C0.34 4 -0.32 4 -1 4 C-0.67 2.68 -0.34 1.36 0 0 Z " fill="#02A7F8" transform="translate(991,572)"/>
</svg>
